<mxfile host="app.diagrams.net" modified="2023-05-27T13:50:04.443Z" agent="Mozilla/5.0 (Macintosh; Intel Mac OS X 10_15_7) AppleWebKit/605.1.15 (KHTML, like Gecko) Version/15.6.1 Safari/605.1.15" version="21.3.4" etag="i-ntp0dbA3HoC0IIVwbG" type="github">
  <diagram name="Page-1" id="9iJbTwiNrn029KffdAOz">
    <mxGraphModel>
      <root>
        <mxCell id="0" />
        <mxCell id="1" parent="0" />
      </root>
    </mxGraphModel>
  </diagram>
</mxfile>
